<?xml version="1.0" encoding="UTF-8" standalone="no"?>
<!-- Created with Inkscape (http://www.inkscape.org/) -->

<svg
   xmlns:dc="http://purl.org/dc/elements/1.1/"
   xmlns:cc="http://creativecommons.org/ns#"
   xmlns:rdf="http://www.w3.org/1999/02/22-rdf-syntax-ns#"
   xmlns:svg="http://www.w3.org/2000/svg"
   xmlns="http://www.w3.org/2000/svg"
   xmlns:sodipodi="http://sodipodi.sourceforge.net/DTD/sodipodi-0.dtd"
   xmlns:inkscape="http://www.inkscape.org/namespaces/inkscape"
   id="svg2985"
   version="1.1"
   inkscape:version="0.48.2 r9819"
   width="1200"
   height="995"
   sodipodi:docname="smile.jpg">
  <metadata
     id="metadata2991">
    <rdf:RDF>
      <cc:Work
         rdf:about="">
        <dc:format>image/svg+xml</dc:format>
        <dc:type
           rdf:resource="http://purl.org/dc/dcmitype/StillImage" />
        <dc:title></dc:title>
      </cc:Work>
    </rdf:RDF>
  </metadata>
  <defs
     id="defs2989" />
  <sodipodi:namedview
     pagecolor="#ffffff"
     bordercolor="#666666"
     borderopacity="1"
     objecttolerance="10"
     gridtolerance="10"
     guidetolerance="10"
     inkscape:pageopacity="0"
     inkscape:pageshadow="2"
     inkscape:window-width="1835"
     inkscape:window-height="1058"
     id="namedview2987"
     showgrid="false"
     inkscape:zoom="0.57561824"
     inkscape:cx="389.30353"
     inkscape:cy="467.89473"
     inkscape:window-x="1997"
     inkscape:window-y="-8"
     inkscape:window-maximized="1"
     inkscape:current-layer="svg2985" />
  <path
     style="fill:#000000"
     d="m 1102.5165,987.46484 c 34.7621,-7.18031 62.0221,-34.4691 68.5857,-68.6581 2.7453,-14.30019 0.8948,-33.96186 -4.4742,-47.53733 -2.8128,-7.11209 -4.7793,-10.11395 -12.6957,-19.37969 -7.1506,-8.36947 -19.4235,-24.5831 -24.5173,-32.38972 -2.1532,-3.3 -4.2737,-6.45 -4.7121,-7 -7.0177,-8.80399 -24.8662,-41.70223 -35.1055,-64.70616 -17.2221,-38.69201 -28.0823,-80.88072 -33.7976,-131.29384 -1.6466,-14.52399 -1.6569,-65.71141 -0.016,-80 5.2443,-45.66979 13.8366,-81.57535 28.0731,-117.31163 4.3865,-11.01102 4.7539,-11.85682 11.1606,-25.68837 5.012,-10.82053 6.3768,-18.12397 5.5458,-29.67813 -1.8824,-26.17162 -14.2109,-47.80554 -36.1524,-63.43966 -20.333,-14.48802 -52.6256,-17.54993 -76.79554,-7.28157 -11.98723,5.09267 -26.63356,16.31732 -33.92336,25.9982 -6.30112,8.36792 -24.70768,55.7008 -34.16142,87.84688 -9.78408,33.26935 -17.43965,71.62692 -21.4419,107.43286 -1.0433,9.3338 -2.38671,17.18764 -3.00536,17.56999 -2.92166,1.80568 -70.8553,12.16823 -108.08322,16.48694 -65.87619,7.64211 -118.28965,10.55336 -190,10.55336 -84.84455,0 -152.84608,-4.69045 -232.5,-16.03684 -22.71732,-3.23599 -66.39214,-10.51084 -67.04966,-11.16836 -0.22263,-0.22263 -1.3394,-8.70253 -2.4817,-18.84423 -4.16161,-36.94797 -11.60947,-74.36641 -21.4876,-107.95484 -9.4653,-32.18467 -27.86812,-79.51294 -34.17294,-87.88576 -3.84932,-5.1119 -14.02542,-14.42212 -20.38307,-18.64868 -29.33548,-19.50219 -68.41906,-17.85013 -95.80943,4.04984 -17.96712,14.36562 -28.976444,35.65375 -30.678759,59.32187 -0.831026,11.55416 0.533709,18.8576 5.545718,29.67813 6.406691,13.83155 6.774161,14.67735 11.160681,25.68837 14.23643,35.73628 22.82875,71.64184 28.07305,117.31163 1.64077,14.28859 1.63048,65.47601 -0.0161,80 -5.71526,50.41312 -16.57546,92.60183 -33.79762,131.29384 -10.239248,23.00393 -28.087755,55.90217 -35.105474,64.70616 -0.438408,0.55 -2.558861,3.7 -4.712117,7 -5.093834,7.80662 -17.366698,24.02025 -24.517312,32.38972 -7.916364,9.26574 -9.882881,12.2676 -12.695658,19.37969 -5.368991,13.57547 -7.219541,33.23714 -4.474198,47.53733 9.952688,51.84245 64.472516,82.86234 114.361769,65.06788 7.06699,-2.52065 19.7956,-9.55497 24.14595,-13.34399 C 162.00368,967.13878 163.63869,966 164.039,966 c 0.4003,0 0.952,-0.7875 1.22598,-1.75 0.37691,-1.32405 15.2509,-21.92557 21.47907,-29.75 3.90391,-4.90448 20.14358,-30.81864 29.45357,-47 C 225.69553,870.99185 245,833.50724 245,831.57257 c 0,-0.28737 1.35,-3.47002 3,-7.07257 1.65,-3.60255 3,-6.7885 3,-7.07991 0,-0.2914 0.84465,-2.41763 1.87699,-4.72495 3.05717,-6.83289 11.6174,-30.25848 15.96717,-43.69514 10.44343,-32.26031 20.81329,-77.61914 23.71915,-103.75 0.57846,-5.20179 1.01005,-6.25 2.57342,-6.25 1.03312,0 10.9875,2.01029 22.12084,4.46731 130.58945,28.81981 265.6614,38.60921 400.24243,29.00773 57.0887,-4.07291 108.33044,-10.84302 166.75654,-22.03207 C 900.39832,667.3517 901,667.35155 901,670.43871 c 0,7.95461 8.72126,50.03022 15.5584,75.06129 5.92156,21.6791 17.44651,55.52096 23.56461,69.19514 1.03234,2.30732 1.87699,4.43355 1.87699,4.72495 0,0.29141 1.35,3.47736 3,7.07991 1.65,3.60255 3,6.7852 3,7.07257 0,1.93467 19.30447,39.41928 28.80247,55.92743 9.30999,16.18136 25.54963,42.09552 29.45353,47 6.2282,7.82443 21.1022,28.42595 21.4791,29.75 0.274,0.9625 0.8257,1.75 1.226,1.75 0.4003,0 2.0353,1.13878 3.6334,2.53063 4.3653,3.80204 17.0876,10.82638 24.2121,13.36811 14.4948,5.17122 31.5118,6.49881 45.7099,3.5661 z M 312,235.578 c -208,506.28133 -104,253.14067 0,0 z m 6.5,-2.62444 c 16.49209,-1.8875 32.33576,-8.93388 45,-20.01352 36.93212,-32.311 38.87949,-87.00132 4.33822,-121.835582 -27.92469,-28.161563 -70.85463,-32.613771 -104.68773,-10.857027 -7.28802,4.686639 -18.3772,15.851729 -23.74225,23.904769 -9.61748,14.43601 -13.55737,27.55048 -13.62352,45.3478 -0.0907,24.40177 8.15195,43.62018 26.03703,60.70748 12.12158,11.5809 26.19881,18.90702 41.67825,21.69036 12.93169,2.32523 13.64453,2.35533 25,1.05572 z m 590,-4.58025 C 924.39914,224.46061 936.92416,217.48025 948.64491,206 964.71147,190.26312 973.22888,169.8738 973.2915,147 973.45604,86.901179 911.2322,46.371178 856.14488,70.695594 836.8571,79.212326 819.07301,98.21384 811.49319,118.40396 c -3.44734,9.18256 -5.82966,25.25112 -4.98093,33.59604 2.22188,21.8462 9.16491,37.40389 23.29085,52.18934 21.041,22.02337 50.58458,31.10227 78.69689,24.18397 z"
     id="path3767"
     inkscape:connector-curvature="0"
     sodipodi:nodetypes="sssssssssssssssssssssssssssssssssssssssssssssssssssssssssssssscscssccsssssssssssssssss" />
</svg>
